<svg xmlns="http://www.w3.org/2000/svg" xmlns:xlink="http://www.w3.org/1999/xlink" contentStyleType="text/css" data-diagram-type="CLASS" height="310px" preserveAspectRatio="none" style="width:745px;height:310px;background:#FFFFFF;" version="1.1" viewBox="0 0 745 310" width="745px" zoomAndPan="magnify"><defs/><g><!--class Entity--><g class="entity" data-entity="Entity" data-source-line="55" data-uid="ent0002" id="entity_Entity"><rect fill="#F1F1F1" height="65.6094" rx="2.5" ry="2.5" style="stroke:#181818;stroke-width:0.5;" width="67.0137" x="599" y="238"/><ellipse cx="614" cy="254" fill="#ADD1B2" rx="11" ry="11" style="stroke:#181818;stroke-width:1;"/><path d="M616.7656,249.875 Q616.9219,249.6563 617.1094,249.5469 Q617.2969,249.4375 617.5156,249.4375 Q617.8906,249.4375 618.125,249.7031 Q618.3594,249.9531 618.3594,250.5625 L618.3594,252.0156 Q618.3594,252.625 618.125,252.8906 Q617.8906,253.1563 617.5156,253.1563 Q617.1719,253.1563 616.9688,252.9531 Q616.7656,252.7656 616.6563,252.25 Q616.6094,251.8906 616.4219,251.7031 Q616.0938,251.3281 615.4844,251.1094 Q614.875,250.8906 614.25,250.8906 Q613.4844,250.8906 612.8438,251.2188 Q612.2188,251.5469 611.7188,252.2969 Q611.2344,253.0469 611.2344,254.0781 L611.2344,255.1719 Q611.2344,256.4063 612.125,257.2344 Q613.0156,258.0469 614.6094,258.0469 Q615.5469,258.0469 616.2031,257.7969 Q616.5938,257.6406 617.0156,257.2031 Q617.2813,256.9375 617.4219,256.8594 Q617.5781,256.7813 617.7813,256.7813 Q618.1094,256.7813 618.3594,257.0469 Q618.625,257.2969 618.625,257.6406 Q618.625,257.9844 618.2813,258.3906 Q617.7813,258.9688 616.9844,259.2969 Q615.9063,259.75 614.6094,259.75 Q613.0938,259.75 611.8906,259.125 Q610.9063,258.625 610.2188,257.5625 Q609.5313,256.4844 609.5313,255.2031 L609.5313,254.0469 Q609.5313,252.7188 610.1406,251.5781 Q610.7656,250.4219 611.8594,249.8125 Q612.9531,249.1875 614.1875,249.1875 Q614.9219,249.1875 615.5625,249.3594 Q616.2188,249.5156 616.7656,249.875 Z " fill="#000000"/><text fill="#000000" font-family="sans-serif" font-size="14" lengthAdjust="spacing" textLength="35.0137" x="628" y="259.7285">Entity</text><line style="stroke:#181818;stroke-width:0.5;" x1="600" x2="665.0137" y1="270" y2="270"/><ellipse cx="610" cy="284.3047" fill="none" rx="3" ry="3" style="stroke:#038048;stroke-width:1;"/><text fill="#000000" font-family="sans-serif" font-size="14" lengthAdjust="spacing" textLength="38.1309" x="619" y="288.5332">Id : int</text><line style="stroke:#181818;stroke-width:0.5;" x1="600" x2="665.0137" y1="295.6094" y2="295.6094"/></g><!--class ICrudRepository-1--><g class="entity" data-entity="ICrudRepository-1" data-source-line="58" data-uid="ent0003" id="entity_ICrudRepository-1"><rect fill="#F1F1F1" height="136.0469" rx="2.5" ry="2.5" style="stroke:#181818;stroke-width:0.5;" width="145.5996" x="23.5" y="24.5"/><ellipse cx="38.5" cy="40.5" fill="#B4A7E5" rx="11" ry="11" style="stroke:#181818;stroke-width:1;"/><path d="M39.4531,37.1406 L39.4531,43.7969 L41.1719,43.7969 Q41.7813,43.7969 42.0469,44.0313 Q42.3125,44.2656 42.3125,44.6563 Q42.3125,45.0313 42.0469,45.2656 Q41.7813,45.5 41.1719,45.5 L36.0313,45.5 Q35.4219,45.5 35.1563,45.2656 Q34.8906,45.0313 34.8906,44.6406 Q34.8906,44.2656 35.1563,44.0313 Q35.4219,43.7969 36.0313,43.7969 L37.75,43.7969 L37.75,37.1406 L36.0313,37.1406 Q35.4219,37.1406 35.1563,36.9063 Q34.8906,36.6719 34.8906,36.2813 Q34.8906,35.9063 35.1563,35.6719 Q35.4219,35.4375 36.0313,35.4375 L41.1719,35.4375 Q41.7813,35.4375 42.0469,35.6719 Q42.3125,35.9063 42.3125,36.2813 Q42.3125,36.6719 42.0469,36.9063 Q41.7813,37.1406 41.1719,37.1406 L39.4531,37.1406 Z " fill="#000000"/><text fill="#000000" font-family="sans-serif" font-size="14" font-style="italic" lengthAdjust="spacing" textLength="113.5996" x="52.5" y="46.2285">ICrudRepository-1</text><line style="stroke:#181818;stroke-width:0.5;" x1="24.5" x2="168.0996" y1="56.5" y2="56.5"/><line style="stroke:#181818;stroke-width:0.5;" x1="24.5" x2="168.0996" y1="64.5" y2="64.5"/><ellipse cx="34.5" cy="78.8047" fill="#84BE84" rx="3" ry="3" style="stroke:#038048;stroke-width:1;"/><text fill="#000000" font-family="sans-serif" font-size="14" lengthAdjust="spacing" textLength="81.6895" x="43.5" y="83.0332">Create(,) : int</text><ellipse cx="34.5" cy="96.4141" fill="#84BE84" rx="3" ry="3" style="stroke:#038048;stroke-width:1;"/><text fill="#000000" font-family="sans-serif" font-size="14" lengthAdjust="spacing" textLength="102.6758" x="43.5" y="100.6426">GetByFilter(,, ,) :</text><ellipse cx="34.5" cy="114.0234" fill="#84BE84" rx="3" ry="3" style="stroke:#038048;stroke-width:1;"/><text fill="#000000" font-family="sans-serif" font-size="14" lengthAdjust="spacing" textLength="103.4688" x="43.5" y="118.252">GetById(,, ,) : T?</text><ellipse cx="34.5" cy="131.6328" fill="#84BE84" rx="3" ry="3" style="stroke:#038048;stroke-width:1;"/><text fill="#000000" font-family="sans-serif" font-size="14" lengthAdjust="spacing" textLength="95.71" x="43.5" y="135.8613">Update(,) : void</text><ellipse cx="34.5" cy="149.2422" fill="#84BE84" rx="3" ry="3" style="stroke:#038048;stroke-width:1;"/><text fill="#000000" font-family="sans-serif" font-size="14" lengthAdjust="spacing" textLength="91.0342" x="43.5" y="153.4707">Delete(,) : void</text></g><!--class IMultiRepository-1--><g class="entity" data-entity="IMultiRepository-1" data-source-line="65" data-uid="ent0004" id="entity_IMultiRepository-1"><rect fill="#F1F1F1" height="83.2188" rx="2.5" ry="2.5" style="stroke:#181818;stroke-width:0.5;" width="158.2344" x="204.5" y="51"/><ellipse cx="225.5394" cy="67" fill="#B4A7E5" rx="11" ry="11" style="stroke:#181818;stroke-width:1;"/><path d="M226.4925,63.6406 L226.4925,70.2969 L228.2113,70.2969 Q228.8207,70.2969 229.0863,70.5313 Q229.3519,70.7656 229.3519,71.1563 Q229.3519,71.5313 229.0863,71.7656 Q228.8207,72 228.2113,72 L223.0707,72 Q222.4613,72 222.1957,71.7656 Q221.93,71.5313 221.93,71.1406 Q221.93,70.7656 222.1957,70.5313 Q222.4613,70.2969 223.0707,70.2969 L224.7894,70.2969 L224.7894,63.6406 L223.0707,63.6406 Q222.4613,63.6406 222.1957,63.4063 Q221.93,63.1719 221.93,62.7813 Q221.93,62.4063 222.1957,62.1719 Q222.4613,61.9375 223.0707,61.9375 L228.2113,61.9375 Q228.8207,61.9375 229.0863,62.1719 Q229.3519,62.4063 229.3519,62.7813 Q229.3519,63.1719 229.0863,63.4063 Q228.8207,63.6406 228.2113,63.6406 L226.4925,63.6406 Z " fill="#000000"/><text fill="#000000" font-family="sans-serif" font-size="14" font-style="italic" lengthAdjust="spacing" textLength="112.8135" x="240.8815" y="72.7285">IMultiRepository-1</text><line style="stroke:#181818;stroke-width:0.5;" x1="205.5" x2="361.7344" y1="83" y2="83"/><line style="stroke:#181818;stroke-width:0.5;" x1="205.5" x2="361.7344" y1="91" y2="91"/><ellipse cx="215.5" cy="105.3047" fill="#84BE84" rx="3" ry="3" style="stroke:#038048;stroke-width:1;"/><text fill="#000000" font-family="sans-serif" font-size="14" lengthAdjust="spacing" textLength="132.2344" x="224.5" y="109.5332">GetByMultiFilter(,, ,) :</text><ellipse cx="215.5" cy="122.9141" fill="#84BE84" rx="3" ry="3" style="stroke:#038048;stroke-width:1;"/><text fill="#000000" font-family="sans-serif" font-size="14" lengthAdjust="spacing" textLength="91.0205" x="224.5" y="127.1426">MultiDelete(,) :</text></g><!--class DataFilter--><g class="entity" data-entity="DataFilter" data-source-line="69" data-uid="ent0005" id="entity_DataFilter"><rect fill="#F1F1F1" height="48" rx="2.5" ry="2.5" style="stroke:#181818;stroke-width:0.5;" width="92.6826" x="398" y="68.5"/><ellipse cx="413" cy="84.5" fill="#ADD1B2" rx="11" ry="11" style="stroke:#181818;stroke-width:1;"/><path d="M415.7656,80.375 Q415.9219,80.1563 416.1094,80.0469 Q416.2969,79.9375 416.5156,79.9375 Q416.8906,79.9375 417.125,80.2031 Q417.3594,80.4531 417.3594,81.0625 L417.3594,82.5156 Q417.3594,83.125 417.125,83.3906 Q416.8906,83.6563 416.5156,83.6563 Q416.1719,83.6563 415.9688,83.4531 Q415.7656,83.2656 415.6563,82.75 Q415.6094,82.3906 415.4219,82.2031 Q415.0938,81.8281 414.4844,81.6094 Q413.875,81.3906 413.25,81.3906 Q412.4844,81.3906 411.8438,81.7188 Q411.2188,82.0469 410.7188,82.7969 Q410.2344,83.5469 410.2344,84.5781 L410.2344,85.6719 Q410.2344,86.9063 411.125,87.7344 Q412.0156,88.5469 413.6094,88.5469 Q414.5469,88.5469 415.2031,88.2969 Q415.5938,88.1406 416.0156,87.7031 Q416.2813,87.4375 416.4219,87.3594 Q416.5781,87.2813 416.7813,87.2813 Q417.1094,87.2813 417.3594,87.5469 Q417.625,87.7969 417.625,88.1406 Q417.625,88.4844 417.2813,88.8906 Q416.7813,89.4688 415.9844,89.7969 Q414.9063,90.25 413.6094,90.25 Q412.0938,90.25 410.8906,89.625 Q409.9063,89.125 409.2188,88.0625 Q408.5313,86.9844 408.5313,85.7031 L408.5313,84.5469 Q408.5313,83.2188 409.1406,82.0781 Q409.7656,80.9219 410.8594,80.3125 Q411.9531,79.6875 413.1875,79.6875 Q413.9219,79.6875 414.5625,79.8594 Q415.2188,80.0156 415.7656,80.375 Z " fill="#000000"/><text fill="#000000" font-family="sans-serif" font-size="14" lengthAdjust="spacing" textLength="60.6826" x="427" y="90.2285">DataFilter</text><line style="stroke:#181818;stroke-width:0.5;" x1="399" x2="489.6826" y1="100.5" y2="100.5"/><line style="stroke:#181818;stroke-width:0.5;" x1="399" x2="489.6826" y1="108.5" y2="108.5"/></g><!--class BaseDbContextOptions--><g class="entity" data-entity="BaseDbContextOptions" data-source-line="70" data-uid="ent0006" id="entity_BaseDbContextOptions"><rect fill="#F1F1F1" height="65.6094" rx="2.5" ry="2.5" style="stroke:#181818;stroke-width:0.5;" width="179.3027" x="7" y="238"/><ellipse cx="22.45" cy="254" fill="#ADD1B2" rx="11" ry="11" style="stroke:#181818;stroke-width:1;"/><path d="M25.2156,249.875 Q25.3719,249.6563 25.5594,249.5469 Q25.7469,249.4375 25.9656,249.4375 Q26.3406,249.4375 26.575,249.7031 Q26.8094,249.9531 26.8094,250.5625 L26.8094,252.0156 Q26.8094,252.625 26.575,252.8906 Q26.3406,253.1563 25.9656,253.1563 Q25.6219,253.1563 25.4188,252.9531 Q25.2156,252.7656 25.1063,252.25 Q25.0594,251.8906 24.8719,251.7031 Q24.5438,251.3281 23.9344,251.1094 Q23.325,250.8906 22.7,250.8906 Q21.9344,250.8906 21.2938,251.2188 Q20.6688,251.5469 20.1688,252.2969 Q19.6844,253.0469 19.6844,254.0781 L19.6844,255.1719 Q19.6844,256.4063 20.575,257.2344 Q21.4656,258.0469 23.0594,258.0469 Q23.9969,258.0469 24.6531,257.7969 Q25.0438,257.6406 25.4656,257.2031 Q25.7313,256.9375 25.8719,256.8594 Q26.0281,256.7813 26.2313,256.7813 Q26.5594,256.7813 26.8094,257.0469 Q27.075,257.2969 27.075,257.6406 Q27.075,257.9844 26.7313,258.3906 Q26.2313,258.9688 25.4344,259.2969 Q24.3563,259.75 23.0594,259.75 Q21.5438,259.75 20.3406,259.125 Q19.3563,258.625 18.6688,257.5625 Q17.9813,256.4844 17.9813,255.2031 L17.9813,254.0469 Q17.9813,252.7188 18.5906,251.5781 Q19.2156,250.4219 20.3094,249.8125 Q21.4031,249.1875 22.6375,249.1875 Q23.3719,249.1875 24.0125,249.3594 Q24.6688,249.5156 25.2156,249.875 Z " fill="#000000"/><text fill="#000000" font-family="sans-serif" font-size="14" lengthAdjust="spacing" textLength="146.3027" x="36.55" y="259.7285">BaseDbContextOptions</text><line style="stroke:#181818;stroke-width:0.5;" x1="8" x2="185.3027" y1="270" y2="270"/><ellipse cx="18" cy="284.3047" fill="none" rx="3" ry="3" style="stroke:#038048;stroke-width:1;"/><text fill="#000000" font-family="sans-serif" font-size="14" lengthAdjust="spacing" textLength="153.3027" x="27" y="288.5332">ConnectionString : string</text><line style="stroke:#181818;stroke-width:0.5;" x1="8" x2="185.3027" y1="295.6094" y2="295.6094"/></g><!--class ValueConverterCollection--><g class="entity" data-entity="ValueConverterCollection" data-source-line="73" data-uid="ent0007" id="entity_ValueConverterCollection"><rect fill="#F1F1F1" height="65.6094" rx="2.5" ry="2.5" style="stroke:#181818;stroke-width:0.5;" width="190.751" x="221" y="238"/><ellipse cx="236" cy="254" fill="#ADD1B2" rx="11" ry="11" style="stroke:#181818;stroke-width:1;"/><path d="M238.7656,249.875 Q238.9219,249.6563 239.1094,249.5469 Q239.2969,249.4375 239.5156,249.4375 Q239.8906,249.4375 240.125,249.7031 Q240.3594,249.9531 240.3594,250.5625 L240.3594,252.0156 Q240.3594,252.625 240.125,252.8906 Q239.8906,253.1563 239.5156,253.1563 Q239.1719,253.1563 238.9688,252.9531 Q238.7656,252.7656 238.6563,252.25 Q238.6094,251.8906 238.4219,251.7031 Q238.0938,251.3281 237.4844,251.1094 Q236.875,250.8906 236.25,250.8906 Q235.4844,250.8906 234.8438,251.2188 Q234.2188,251.5469 233.7188,252.2969 Q233.2344,253.0469 233.2344,254.0781 L233.2344,255.1719 Q233.2344,256.4063 234.125,257.2344 Q235.0156,258.0469 236.6094,258.0469 Q237.5469,258.0469 238.2031,257.7969 Q238.5938,257.6406 239.0156,257.2031 Q239.2813,256.9375 239.4219,256.8594 Q239.5781,256.7813 239.7813,256.7813 Q240.1094,256.7813 240.3594,257.0469 Q240.625,257.2969 240.625,257.6406 Q240.625,257.9844 240.2813,258.3906 Q239.7813,258.9688 238.9844,259.2969 Q237.9063,259.75 236.6094,259.75 Q235.0938,259.75 233.8906,259.125 Q232.9063,258.625 232.2188,257.5625 Q231.5313,256.4844 231.5313,255.2031 L231.5313,254.0469 Q231.5313,252.7188 232.1406,251.5781 Q232.7656,250.4219 233.8594,249.8125 Q234.9531,249.1875 236.1875,249.1875 Q236.9219,249.1875 237.5625,249.3594 Q238.2188,249.5156 238.7656,249.875 Z " fill="#000000"/><text fill="#000000" font-family="sans-serif" font-size="14" lengthAdjust="spacing" textLength="158.751" x="250" y="259.7285">ValueConverterCollection</text><line style="stroke:#181818;stroke-width:0.5;" x1="222" x2="410.751" y1="270" y2="270"/><line style="stroke:#181818;stroke-width:0.5;" x1="222" x2="410.751" y1="278" y2="278"/><ellipse cx="232" cy="292.3047" fill="#84BE84" rx="3" ry="3" style="stroke:#038048;stroke-width:1;"/><text fill="#000000" font-family="sans-serif" font-size="14" lengthAdjust="spacing" textLength="154.834" x="241" y="296.5332">EnumIntToString&lt; T &gt;() :</text></g><!--class DomainEventEntity--><g class="entity" data-entity="DomainEventEntity" data-source-line="76" data-uid="ent0008" id="entity_DomainEventEntity"><rect fill="#F1F1F1" height="171.2656" rx="2.5" ry="2.5" style="stroke:#181818;stroke-width:0.5;" width="212.7373" x="526" y="7"/><ellipse cx="568.7572" cy="23" fill="#ADD1B2" rx="11" ry="11" style="stroke:#181818;stroke-width:1;"/><path d="M571.5228,18.875 Q571.6791,18.6563 571.8666,18.5469 Q572.0541,18.4375 572.2728,18.4375 Q572.6478,18.4375 572.8822,18.7031 Q573.1166,18.9531 573.1166,19.5625 L573.1166,21.0156 Q573.1166,21.625 572.8822,21.8906 Q572.6478,22.1563 572.2728,22.1563 Q571.9291,22.1563 571.7259,21.9531 Q571.5228,21.7656 571.4134,21.25 Q571.3666,20.8906 571.1791,20.7031 Q570.8509,20.3281 570.2416,20.1094 Q569.6322,19.8906 569.0072,19.8906 Q568.2416,19.8906 567.6009,20.2188 Q566.9759,20.5469 566.4759,21.2969 Q565.9916,22.0469 565.9916,23.0781 L565.9916,24.1719 Q565.9916,25.4063 566.8822,26.2344 Q567.7728,27.0469 569.3666,27.0469 Q570.3041,27.0469 570.9603,26.7969 Q571.3509,26.6406 571.7728,26.2031 Q572.0384,25.9375 572.1791,25.8594 Q572.3353,25.7813 572.5384,25.7813 Q572.8666,25.7813 573.1166,26.0469 Q573.3822,26.2969 573.3822,26.6406 Q573.3822,26.9844 573.0384,27.3906 Q572.5384,27.9688 571.7416,28.2969 Q570.6634,28.75 569.3666,28.75 Q567.8509,28.75 566.6478,28.125 Q565.6634,27.625 564.9759,26.5625 Q564.2884,25.4844 564.2884,24.2031 L564.2884,23.0469 Q564.2884,21.7188 564.8978,20.5781 Q565.5228,19.4219 566.6166,18.8125 Q567.7103,18.1875 568.9447,18.1875 Q569.6791,18.1875 570.3197,18.3594 Q570.9759,18.5156 571.5228,18.875 Z " fill="#000000"/><text fill="#000000" font-family="sans-serif" font-size="14" lengthAdjust="spacing" textLength="119.0547" x="588.9254" y="28.7285">DomainEventEntity</text><line style="stroke:#181818;stroke-width:0.5;" x1="527" x2="737.7373" y1="39" y2="39"/><ellipse cx="537" cy="53.3047" fill="none" rx="3" ry="3" style="stroke:#038048;stroke-width:1;"/><text fill="#000000" font-family="sans-serif" font-size="14" lengthAdjust="spacing" textLength="98.8203" x="546" y="57.5332">DomainEvents :</text><line style="stroke:#181818;stroke-width:0.5;" x1="527" x2="737.7373" y1="64.6094" y2="64.6094"/><polygon fill="#FFFF44" points="537,73.9141,541,77.9141,537,81.9141,533,77.9141" style="stroke:#B38D22;stroke-width:1;"/><text fill="#000000" font-family="sans-serif" font-size="14" lengthAdjust="spacing" textLength="159.5166" x="546" y="83.1426">AddDomainEvent(,) : void</text><polygon fill="#FFFF44" points="537,91.5234,541,95.5234,537,99.5234,533,95.5234" style="stroke:#B38D22;stroke-width:1;"/><text fill="#000000" font-family="sans-serif" font-size="14" lengthAdjust="spacing" textLength="186.7373" x="546" y="100.752">RemoveDomainEvent(,) : void</text><ellipse cx="537" cy="114.1328" fill="#84BE84" rx="3" ry="3" style="stroke:#038048;stroke-width:1;"/><text fill="#000000" font-family="sans-serif" font-size="14" lengthAdjust="spacing" textLength="94.1582" x="546" y="118.3613">Equals(,) : bool</text><ellipse cx="537" cy="131.7422" fill="#84BE84" rx="3" ry="3" style="stroke:#038048;stroke-width:1;"/><text fill="#000000" font-family="sans-serif" font-size="14" lengthAdjust="spacing" textLength="124.4961" x="546" y="135.9707">GetHashCode() : int</text><ellipse cx="537" cy="149.3516" fill="#84BE84" rx="3" ry="3" style="stroke:#038048;stroke-width:1;"/><text fill="#000000" font-family="sans-serif" font-size="14" lengthAdjust="spacing" textLength="131.5166" x="546" y="153.5801">operator==(,, ,) : bool</text><ellipse cx="537" cy="166.9609" fill="#84BE84" rx="3" ry="3" style="stroke:#038048;stroke-width:1;"/><text fill="#000000" font-family="sans-serif" font-size="14" lengthAdjust="spacing" textLength="127.2305" x="546" y="171.1895">operator!=(,, ,) : bool</text></g><!--link DomainEventEntity to Entity--><g class="link" data-entity-1="DomainEventEntity" data-entity-2="Entity" data-source-line="85" data-uid="lnk9" id="link_DomainEventEntity_Entity"><path codeLine="85" d="M632.5,178.13 C632.5,199.36 632.5,202.88 632.5,219.74" fill="none" id="DomainEventEntity-to-Entity" style="stroke:#181818;stroke-width:1;"/><polygon fill="none" points="632.5,237.74,638.5,219.74,626.5,219.74,632.5,237.74" style="stroke:#181818;stroke-width:1;"/></g><!--SRC=[TP9DJuGm48Rl_8gQlM0M3bwDkyO5L0x6P5szT-ceJKe7su58TF-xfR04TkE5b6VcVJiVBHItbcMQ9BK_0MFBNB1h9ZK5Xy1zmRpp0bYUc5fieK8h2KqRN_dKn00d2AFBGU7G0z2clPVA2SCeObrenBau8hQxxUXh9KPzWr9qB0K5CpOhuwbM9C_gyEu-T7wpnnDJvrVubbDEl4yVm8PRIFS9kjk-wRaYYThsRQBMK7J_BsIa_d2LMNyOlTwugi6bDM2SNu9AzVbUdkcwp3Nji5VVi1rRXxDAiEHIPmrecknXGgrlPN4dn0JEnhROGeaD_1TUPbyrLxPdUqGrJEsHsyy41OIJ3M85XhlXhbRZjewAO-ZY97G8pbfWSVox7fxL7m00]--></g></svg>