<svg xmlns="http://www.w3.org/2000/svg" xmlns:xlink="http://www.w3.org/1999/xlink" contentStyleType="text/css" data-diagram-type="CLASS" height="310px" preserveAspectRatio="none" style="width:739px;height:310px;background:#FFFFFF;" version="1.1" viewBox="0 0 739 310" width="739px" zoomAndPan="magnify"><defs/><g><!--class Entity--><g class="entity" data-entity="Entity" data-source-line="1" data-uid="ent0002" id="entity_Entity"><rect fill="#F1F1F1" height="65.6094" rx="2.5" ry="2.5" style="stroke:#181818;stroke-width:0.5;" width="67.0137" x="593" y="238"/><ellipse cx="608" cy="254" fill="#ADD1B2" rx="11" ry="11" style="stroke:#181818;stroke-width:1;"/><path d="M610.7656,249.875 Q610.9219,249.6563 611.1094,249.5469 Q611.2969,249.4375 611.5156,249.4375 Q611.8906,249.4375 612.125,249.7031 Q612.3594,249.9531 612.3594,250.5625 L612.3594,252.0156 Q612.3594,252.625 612.125,252.8906 Q611.8906,253.1563 611.5156,253.1563 Q611.1719,253.1563 610.9688,252.9531 Q610.7656,252.7656 610.6563,252.25 Q610.6094,251.8906 610.4219,251.7031 Q610.0938,251.3281 609.4844,251.1094 Q608.875,250.8906 608.25,250.8906 Q607.4844,250.8906 606.8438,251.2188 Q606.2188,251.5469 605.7188,252.2969 Q605.2344,253.0469 605.2344,254.0781 L605.2344,255.1719 Q605.2344,256.4063 606.125,257.2344 Q607.0156,258.0469 608.6094,258.0469 Q609.5469,258.0469 610.2031,257.7969 Q610.5938,257.6406 611.0156,257.2031 Q611.2813,256.9375 611.4219,256.8594 Q611.5781,256.7813 611.7813,256.7813 Q612.1094,256.7813 612.3594,257.0469 Q612.625,257.2969 612.625,257.6406 Q612.625,257.9844 612.2813,258.3906 Q611.7813,258.9688 610.9844,259.2969 Q609.9063,259.75 608.6094,259.75 Q607.0938,259.75 605.8906,259.125 Q604.9063,258.625 604.2188,257.5625 Q603.5313,256.4844 603.5313,255.2031 L603.5313,254.0469 Q603.5313,252.7188 604.1406,251.5781 Q604.7656,250.4219 605.8594,249.8125 Q606.9531,249.1875 608.1875,249.1875 Q608.9219,249.1875 609.5625,249.3594 Q610.2188,249.5156 610.7656,249.875 Z " fill="#000000"/><text fill="#000000" font-family="sans-serif" font-size="14" lengthAdjust="spacing" textLength="35.0137" x="622" y="259.7285">Entity</text><line style="stroke:#181818;stroke-width:0.5;" x1="594" x2="659.0137" y1="270" y2="270"/><ellipse cx="604" cy="284.3047" fill="none" rx="3" ry="3" style="stroke:#038048;stroke-width:1;"/><text fill="#000000" font-family="sans-serif" font-size="14" lengthAdjust="spacing" textLength="38.1309" x="613" y="288.5332">Id : int</text><line style="stroke:#181818;stroke-width:0.5;" x1="594" x2="659.0137" y1="295.6094" y2="295.6094"/></g><!--class ICrudRepository--><g class="entity" data-entity="ICrudRepository" data-source-line="4" data-uid="ent0003" id="entity_ICrudRepository"><rect fill="#F1F1F1" height="136.0469" rx="2.5" ry="2.5" style="stroke:#181818;stroke-width:0.5;" width="133.1514" x="30" y="24.5"/><ellipse cx="45" cy="40.5" fill="#B4A7E5" rx="11" ry="11" style="stroke:#181818;stroke-width:1;"/><path d="M45.9531,37.1406 L45.9531,43.7969 L47.6719,43.7969 Q48.2813,43.7969 48.5469,44.0313 Q48.8125,44.2656 48.8125,44.6563 Q48.8125,45.0313 48.5469,45.2656 Q48.2813,45.5 47.6719,45.5 L42.5313,45.5 Q41.9219,45.5 41.6563,45.2656 Q41.3906,45.0313 41.3906,44.6406 Q41.3906,44.2656 41.6563,44.0313 Q41.9219,43.7969 42.5313,43.7969 L44.25,43.7969 L44.25,37.1406 L42.5313,37.1406 Q41.9219,37.1406 41.6563,36.9063 Q41.3906,36.6719 41.3906,36.2813 Q41.3906,35.9063 41.6563,35.6719 Q41.9219,35.4375 42.5313,35.4375 L47.6719,35.4375 Q48.2813,35.4375 48.5469,35.6719 Q48.8125,35.9063 48.8125,36.2813 Q48.8125,36.6719 48.5469,36.9063 Q48.2813,37.1406 47.6719,37.1406 L45.9531,37.1406 Z " fill="#000000"/><text fill="#000000" font-family="sans-serif" font-size="14" font-style="italic" lengthAdjust="spacing" textLength="101.1514" x="59" y="46.2285">ICrudRepository</text><line style="stroke:#181818;stroke-width:0.5;" x1="31" x2="162.1514" y1="56.5" y2="56.5"/><line style="stroke:#181818;stroke-width:0.5;" x1="31" x2="162.1514" y1="64.5" y2="64.5"/><ellipse cx="41" cy="78.8047" fill="#84BE84" rx="3" ry="3" style="stroke:#038048;stroke-width:1;"/><text fill="#000000" font-family="sans-serif" font-size="14" lengthAdjust="spacing" textLength="81.6895" x="50" y="83.0332">Create(,) : int</text><ellipse cx="41" cy="96.4141" fill="#84BE84" rx="3" ry="3" style="stroke:#038048;stroke-width:1;"/><text fill="#000000" font-family="sans-serif" font-size="14" lengthAdjust="spacing" textLength="102.6758" x="50" y="100.6426">GetByFilter(,, ,) :</text><ellipse cx="41" cy="114.0234" fill="#84BE84" rx="3" ry="3" style="stroke:#038048;stroke-width:1;"/><text fill="#000000" font-family="sans-serif" font-size="14" lengthAdjust="spacing" textLength="103.4688" x="50" y="118.252">GetById(,, ,) : T?</text><ellipse cx="41" cy="131.6328" fill="#84BE84" rx="3" ry="3" style="stroke:#038048;stroke-width:1;"/><text fill="#000000" font-family="sans-serif" font-size="14" lengthAdjust="spacing" textLength="95.71" x="50" y="135.8613">Update(,) : void</text><ellipse cx="41" cy="149.2422" fill="#84BE84" rx="3" ry="3" style="stroke:#038048;stroke-width:1;"/><text fill="#000000" font-family="sans-serif" font-size="14" lengthAdjust="spacing" textLength="91.0342" x="50" y="153.4707">Delete(,) : void</text></g><!--class IMultiRepository--><g class="entity" data-entity="IMultiRepository" data-source-line="11" data-uid="ent0004" id="entity_IMultiRepository"><rect fill="#F1F1F1" height="83.2188" rx="2.5" ry="2.5" style="stroke:#181818;stroke-width:0.5;" width="158.2344" x="198.5" y="51"/><ellipse cx="225.1411" cy="67" fill="#B4A7E5" rx="11" ry="11" style="stroke:#181818;stroke-width:1;"/><path d="M226.0942,63.6406 L226.0942,70.2969 L227.813,70.2969 Q228.4224,70.2969 228.688,70.5313 Q228.9536,70.7656 228.9536,71.1563 Q228.9536,71.5313 228.688,71.7656 Q228.4224,72 227.813,72 L222.6724,72 Q222.063,72 221.7974,71.7656 Q221.5317,71.5313 221.5317,71.1406 Q221.5317,70.7656 221.7974,70.5313 Q222.063,70.2969 222.6724,70.2969 L224.3911,70.2969 L224.3911,63.6406 L222.6724,63.6406 Q222.063,63.6406 221.7974,63.4063 Q221.5317,63.1719 221.5317,62.7813 Q221.5317,62.4063 221.7974,62.1719 Q222.063,61.9375 222.6724,61.9375 L227.813,61.9375 Q228.4224,61.9375 228.688,62.1719 Q228.9536,62.4063 228.9536,62.7813 Q228.9536,63.1719 228.688,63.4063 Q228.4224,63.6406 227.813,63.6406 L226.0942,63.6406 Z " fill="#000000"/><text fill="#000000" font-family="sans-serif" font-size="14" font-style="italic" lengthAdjust="spacing" textLength="100.3652" x="241.728" y="72.7285">IMultiRepository</text><line style="stroke:#181818;stroke-width:0.5;" x1="199.5" x2="355.7344" y1="83" y2="83"/><line style="stroke:#181818;stroke-width:0.5;" x1="199.5" x2="355.7344" y1="91" y2="91"/><ellipse cx="209.5" cy="105.3047" fill="#84BE84" rx="3" ry="3" style="stroke:#038048;stroke-width:1;"/><text fill="#000000" font-family="sans-serif" font-size="14" lengthAdjust="spacing" textLength="132.2344" x="218.5" y="109.5332">GetByMultiFilter(,, ,) :</text><ellipse cx="209.5" cy="122.9141" fill="#84BE84" rx="3" ry="3" style="stroke:#038048;stroke-width:1;"/><text fill="#000000" font-family="sans-serif" font-size="14" lengthAdjust="spacing" textLength="91.0205" x="218.5" y="127.1426">MultiDelete(,) :</text></g><!--class DataFilter--><g class="entity" data-entity="DataFilter" data-source-line="15" data-uid="ent0005" id="entity_DataFilter"><rect fill="#F1F1F1" height="48" rx="2.5" ry="2.5" style="stroke:#181818;stroke-width:0.5;" width="92.6826" x="392" y="68.5"/><ellipse cx="407" cy="84.5" fill="#ADD1B2" rx="11" ry="11" style="stroke:#181818;stroke-width:1;"/><path d="M409.7656,80.375 Q409.9219,80.1563 410.1094,80.0469 Q410.2969,79.9375 410.5156,79.9375 Q410.8906,79.9375 411.125,80.2031 Q411.3594,80.4531 411.3594,81.0625 L411.3594,82.5156 Q411.3594,83.125 411.125,83.3906 Q410.8906,83.6563 410.5156,83.6563 Q410.1719,83.6563 409.9688,83.4531 Q409.7656,83.2656 409.6563,82.75 Q409.6094,82.3906 409.4219,82.2031 Q409.0938,81.8281 408.4844,81.6094 Q407.875,81.3906 407.25,81.3906 Q406.4844,81.3906 405.8438,81.7188 Q405.2188,82.0469 404.7188,82.7969 Q404.2344,83.5469 404.2344,84.5781 L404.2344,85.6719 Q404.2344,86.9063 405.125,87.7344 Q406.0156,88.5469 407.6094,88.5469 Q408.5469,88.5469 409.2031,88.2969 Q409.5938,88.1406 410.0156,87.7031 Q410.2813,87.4375 410.4219,87.3594 Q410.5781,87.2813 410.7813,87.2813 Q411.1094,87.2813 411.3594,87.5469 Q411.625,87.7969 411.625,88.1406 Q411.625,88.4844 411.2813,88.8906 Q410.7813,89.4688 409.9844,89.7969 Q408.9063,90.25 407.6094,90.25 Q406.0938,90.25 404.8906,89.625 Q403.9063,89.125 403.2188,88.0625 Q402.5313,86.9844 402.5313,85.7031 L402.5313,84.5469 Q402.5313,83.2188 403.1406,82.0781 Q403.7656,80.9219 404.8594,80.3125 Q405.9531,79.6875 407.1875,79.6875 Q407.9219,79.6875 408.5625,79.8594 Q409.2188,80.0156 409.7656,80.375 Z " fill="#000000"/><text fill="#000000" font-family="sans-serif" font-size="14" lengthAdjust="spacing" textLength="60.6826" x="421" y="90.2285">DataFilter</text><line style="stroke:#181818;stroke-width:0.5;" x1="393" x2="483.6826" y1="100.5" y2="100.5"/><line style="stroke:#181818;stroke-width:0.5;" x1="393" x2="483.6826" y1="108.5" y2="108.5"/></g><!--class BaseDbContextOptions--><g class="entity" data-entity="BaseDbContextOptions" data-source-line="16" data-uid="ent0006" id="entity_BaseDbContextOptions"><rect fill="#F1F1F1" height="65.6094" rx="2.5" ry="2.5" style="stroke:#181818;stroke-width:0.5;" width="179.3027" x="7" y="238"/><ellipse cx="22.45" cy="254" fill="#ADD1B2" rx="11" ry="11" style="stroke:#181818;stroke-width:1;"/><path d="M25.2156,249.875 Q25.3719,249.6563 25.5594,249.5469 Q25.7469,249.4375 25.9656,249.4375 Q26.3406,249.4375 26.575,249.7031 Q26.8094,249.9531 26.8094,250.5625 L26.8094,252.0156 Q26.8094,252.625 26.575,252.8906 Q26.3406,253.1563 25.9656,253.1563 Q25.6219,253.1563 25.4188,252.9531 Q25.2156,252.7656 25.1063,252.25 Q25.0594,251.8906 24.8719,251.7031 Q24.5438,251.3281 23.9344,251.1094 Q23.325,250.8906 22.7,250.8906 Q21.9344,250.8906 21.2938,251.2188 Q20.6688,251.5469 20.1688,252.2969 Q19.6844,253.0469 19.6844,254.0781 L19.6844,255.1719 Q19.6844,256.4063 20.575,257.2344 Q21.4656,258.0469 23.0594,258.0469 Q23.9969,258.0469 24.6531,257.7969 Q25.0438,257.6406 25.4656,257.2031 Q25.7313,256.9375 25.8719,256.8594 Q26.0281,256.7813 26.2313,256.7813 Q26.5594,256.7813 26.8094,257.0469 Q27.075,257.2969 27.075,257.6406 Q27.075,257.9844 26.7313,258.3906 Q26.2313,258.9688 25.4344,259.2969 Q24.3563,259.75 23.0594,259.75 Q21.5438,259.75 20.3406,259.125 Q19.3563,258.625 18.6688,257.5625 Q17.9813,256.4844 17.9813,255.2031 L17.9813,254.0469 Q17.9813,252.7188 18.5906,251.5781 Q19.2156,250.4219 20.3094,249.8125 Q21.4031,249.1875 22.6375,249.1875 Q23.3719,249.1875 24.0125,249.3594 Q24.6688,249.5156 25.2156,249.875 Z " fill="#000000"/><text fill="#000000" font-family="sans-serif" font-size="14" lengthAdjust="spacing" textLength="146.3027" x="36.55" y="259.7285">BaseDbContextOptions</text><line style="stroke:#181818;stroke-width:0.5;" x1="8" x2="185.3027" y1="270" y2="270"/><ellipse cx="18" cy="284.3047" fill="none" rx="3" ry="3" style="stroke:#038048;stroke-width:1;"/><text fill="#000000" font-family="sans-serif" font-size="14" lengthAdjust="spacing" textLength="153.3027" x="27" y="288.5332">ConnectionString : string</text><line style="stroke:#181818;stroke-width:0.5;" x1="8" x2="185.3027" y1="295.6094" y2="295.6094"/></g><!--class ValueConverterCollection--><g class="entity" data-entity="ValueConverterCollection" data-source-line="19" data-uid="ent0007" id="entity_ValueConverterCollection"><rect fill="#F1F1F1" height="65.6094" rx="2.5" ry="2.5" style="stroke:#181818;stroke-width:0.5;" width="190.751" x="221" y="238"/><ellipse cx="236" cy="254" fill="#ADD1B2" rx="11" ry="11" style="stroke:#181818;stroke-width:1;"/><path d="M238.7656,249.875 Q238.9219,249.6563 239.1094,249.5469 Q239.2969,249.4375 239.5156,249.4375 Q239.8906,249.4375 240.125,249.7031 Q240.3594,249.9531 240.3594,250.5625 L240.3594,252.0156 Q240.3594,252.625 240.125,252.8906 Q239.8906,253.1563 239.5156,253.1563 Q239.1719,253.1563 238.9688,252.9531 Q238.7656,252.7656 238.6563,252.25 Q238.6094,251.8906 238.4219,251.7031 Q238.0938,251.3281 237.4844,251.1094 Q236.875,250.8906 236.25,250.8906 Q235.4844,250.8906 234.8438,251.2188 Q234.2188,251.5469 233.7188,252.2969 Q233.2344,253.0469 233.2344,254.0781 L233.2344,255.1719 Q233.2344,256.4063 234.125,257.2344 Q235.0156,258.0469 236.6094,258.0469 Q237.5469,258.0469 238.2031,257.7969 Q238.5938,257.6406 239.0156,257.2031 Q239.2813,256.9375 239.4219,256.8594 Q239.5781,256.7813 239.7813,256.7813 Q240.1094,256.7813 240.3594,257.0469 Q240.625,257.2969 240.625,257.6406 Q240.625,257.9844 240.2813,258.3906 Q239.7813,258.9688 238.9844,259.2969 Q237.9063,259.75 236.6094,259.75 Q235.0938,259.75 233.8906,259.125 Q232.9063,258.625 232.2188,257.5625 Q231.5313,256.4844 231.5313,255.2031 L231.5313,254.0469 Q231.5313,252.7188 232.1406,251.5781 Q232.7656,250.4219 233.8594,249.8125 Q234.9531,249.1875 236.1875,249.1875 Q236.9219,249.1875 237.5625,249.3594 Q238.2188,249.5156 238.7656,249.875 Z " fill="#000000"/><text fill="#000000" font-family="sans-serif" font-size="14" lengthAdjust="spacing" textLength="158.751" x="250" y="259.7285">ValueConverterCollection</text><line style="stroke:#181818;stroke-width:0.5;" x1="222" x2="410.751" y1="270" y2="270"/><line style="stroke:#181818;stroke-width:0.5;" x1="222" x2="410.751" y1="278" y2="278"/><ellipse cx="232" cy="292.3047" fill="#84BE84" rx="3" ry="3" style="stroke:#038048;stroke-width:1;"/><text fill="#000000" font-family="sans-serif" font-size="14" lengthAdjust="spacing" textLength="154.834" x="241" y="296.5332">EnumIntToString&lt; T &gt;() :</text></g><!--class DomainEventEntity--><g class="entity" data-entity="DomainEventEntity" data-source-line="22" data-uid="ent0008" id="entity_DomainEventEntity"><rect fill="#F1F1F1" height="171.2656" rx="2.5" ry="2.5" style="stroke:#181818;stroke-width:0.5;" width="212.7373" x="520" y="7"/><ellipse cx="562.7572" cy="23" fill="#ADD1B2" rx="11" ry="11" style="stroke:#181818;stroke-width:1;"/><path d="M565.5228,18.875 Q565.6791,18.6563 565.8666,18.5469 Q566.0541,18.4375 566.2728,18.4375 Q566.6478,18.4375 566.8822,18.7031 Q567.1166,18.9531 567.1166,19.5625 L567.1166,21.0156 Q567.1166,21.625 566.8822,21.8906 Q566.6478,22.1563 566.2728,22.1563 Q565.9291,22.1563 565.7259,21.9531 Q565.5228,21.7656 565.4134,21.25 Q565.3666,20.8906 565.1791,20.7031 Q564.8509,20.3281 564.2416,20.1094 Q563.6322,19.8906 563.0072,19.8906 Q562.2416,19.8906 561.6009,20.2188 Q560.9759,20.5469 560.4759,21.2969 Q559.9916,22.0469 559.9916,23.0781 L559.9916,24.1719 Q559.9916,25.4063 560.8822,26.2344 Q561.7728,27.0469 563.3666,27.0469 Q564.3041,27.0469 564.9603,26.7969 Q565.3509,26.6406 565.7728,26.2031 Q566.0384,25.9375 566.1791,25.8594 Q566.3353,25.7813 566.5384,25.7813 Q566.8666,25.7813 567.1166,26.0469 Q567.3822,26.2969 567.3822,26.6406 Q567.3822,26.9844 567.0384,27.3906 Q566.5384,27.9688 565.7416,28.2969 Q564.6634,28.75 563.3666,28.75 Q561.8509,28.75 560.6478,28.125 Q559.6634,27.625 558.9759,26.5625 Q558.2884,25.4844 558.2884,24.2031 L558.2884,23.0469 Q558.2884,21.7188 558.8978,20.5781 Q559.5228,19.4219 560.6166,18.8125 Q561.7103,18.1875 562.9447,18.1875 Q563.6791,18.1875 564.3197,18.3594 Q564.9759,18.5156 565.5228,18.875 Z " fill="#000000"/><text fill="#000000" font-family="sans-serif" font-size="14" lengthAdjust="spacing" textLength="119.0547" x="582.9254" y="28.7285">DomainEventEntity</text><line style="stroke:#181818;stroke-width:0.5;" x1="521" x2="731.7373" y1="39" y2="39"/><ellipse cx="531" cy="53.3047" fill="none" rx="3" ry="3" style="stroke:#038048;stroke-width:1;"/><text fill="#000000" font-family="sans-serif" font-size="14" lengthAdjust="spacing" textLength="98.8203" x="540" y="57.5332">DomainEvents :</text><line style="stroke:#181818;stroke-width:0.5;" x1="521" x2="731.7373" y1="64.6094" y2="64.6094"/><polygon fill="#FFFF44" points="531,73.9141,535,77.9141,531,81.9141,527,77.9141" style="stroke:#B38D22;stroke-width:1;"/><text fill="#000000" font-family="sans-serif" font-size="14" lengthAdjust="spacing" textLength="159.5166" x="540" y="83.1426">AddDomainEvent(,) : void</text><polygon fill="#FFFF44" points="531,91.5234,535,95.5234,531,99.5234,527,95.5234" style="stroke:#B38D22;stroke-width:1;"/><text fill="#000000" font-family="sans-serif" font-size="14" lengthAdjust="spacing" textLength="186.7373" x="540" y="100.752">RemoveDomainEvent(,) : void</text><ellipse cx="531" cy="114.1328" fill="#84BE84" rx="3" ry="3" style="stroke:#038048;stroke-width:1;"/><text fill="#000000" font-family="sans-serif" font-size="14" lengthAdjust="spacing" textLength="94.1582" x="540" y="118.3613">Equals(,) : bool</text><ellipse cx="531" cy="131.7422" fill="#84BE84" rx="3" ry="3" style="stroke:#038048;stroke-width:1;"/><text fill="#000000" font-family="sans-serif" font-size="14" lengthAdjust="spacing" textLength="124.4961" x="540" y="135.9707">GetHashCode() : int</text><ellipse cx="531" cy="149.3516" fill="#84BE84" rx="3" ry="3" style="stroke:#038048;stroke-width:1;"/><text fill="#000000" font-family="sans-serif" font-size="14" lengthAdjust="spacing" textLength="131.5166" x="540" y="153.5801">operator==(,, ,) : bool</text><ellipse cx="531" cy="166.9609" fill="#84BE84" rx="3" ry="3" style="stroke:#038048;stroke-width:1;"/><text fill="#000000" font-family="sans-serif" font-size="14" lengthAdjust="spacing" textLength="127.2305" x="540" y="171.1895">operator!=(,, ,) : bool</text></g><!--link DomainEventEntity to Entity--><g class="link" data-entity-1="DomainEventEntity" data-entity-2="Entity" data-source-line="31" data-uid="lnk9" id="link_DomainEventEntity_Entity"><path codeLine="31" d="M626.5,178.13 C626.5,199.36 626.5,202.88 626.5,219.74" fill="none" id="DomainEventEntity-to-Entity" style="stroke:#181818;stroke-width:1;"/><polygon fill="none" points="626.5,237.74,632.5,219.74,620.5,219.74,626.5,237.74" style="stroke:#181818;stroke-width:1;"/></g><!--SRC=[TPBBJiCm44Nt-GgZReAQ_W2YHJG9a0L2Ae6z6mzWoV44Un9HGVyTntaeQTLDv9mxTpmF5ufRor9DaWw_0MFBJB0R9ZK5ny1zmNpm0bWMcrhie48h2KqN61lW165qtSSxz0YqFJn8vMnX5B5M6d4c1iJokvQ-LMBqDoX5on9GC6Ep8fvhHVAa2f_R2-VtUZn9wR8Lljs44-_2Ux3b5f9zZEwk7tgfIAAsNPEeDHJj_oiPgJzTNTOVnbplNDNWmXemBb-CIdNntfxgkimqvTYvRrdEDk6i4Yovr6a3cYOxc53hMrdS2p61iw4jTb1Y0vVaPVfTSsKxjaTK_TIUkFsAKK0usHzMOBWRxNezxcfm3DBLYNGCpbfWgzNVfdzI_m00]--></g></svg>